# xmcd CD database file
#
# Track frame offsets:
#	150
#	18340
#	35783
#	54629
#	76359
#	91446
#	111121
#	127668
#	143212
#	157634
#	169301
#	183713
#	200375
#	218724
#	237016
#	250400
#	264401
#	311546
#	328100
#
# Disc length: 4599 seconds
#
# Revision: 3
# Processed by: cddbd v1.4PL0 Copyright (c) Steve Scherf et al.
# Submitted via: CDex 1.50
#
DISCID=0411f513
DTITLE=Stevie Wonder - The Definitive Collection - CD1
DYEAR=1900
DGENRE=Jazz
TTITLE0=Superstition
TTITLE1=Sir Duke
TTITLE2=I Wish
TTITLE3=Masterblasters (Jammin')
TTITLE4=Isn't She Lovely
TTITLE5=I Just Called To Say I Love You
TTITLE6=Ebony and Ivory
TTITLE7=As
TTITLE8=Never Had A Dream Come True
TTITLE9=I Was Made To Love Her
TTITLE10=Heaven Help Us All
TTITLE11=Overjoyed
TTITLE12=Lately
TTITLE13=For Your Love
TTITLE14=If You Really Love Me
TTITLE15=Higher Ground
TTITLE16=Do I Do
TTITLE17=Living For The City
TTITLE18=Part Time Lover
EXTD=
EXTT0=
EXTT1=
EXTT2=
EXTT3=
EXTT4=
EXTT5=
EXTT6=
EXTT7=
EXTT8=
EXTT9=
EXTT10=
EXTT11=
EXTT12=
EXTT13=
EXTT14=
EXTT15=
EXTT16=
EXTT17=
EXTT18=
PLAYORDER=
